<svg class="step__icon" xmlns="http://www.w3.org/2000/svg" xmlns:xlink="http://www.w3.org/1999/xlink" id="Layer_1" x="0px" y="0px" viewBox="0 0 29.6 29.8" style="enable-background: new 0 0 29.6 29.8; height: 80px; width: 80px;" xml:space="preserve">
    <style type="text/css">
        .st0 {
            fill: #FFB200;
        }

        .st1 {
            fill: #7446CE;
        }
    </style>
    <g>
        <circle class="st0" cx="14.9" cy="14.9" r="6.2"></circle>
        <path class="st1"
            d="M25.2,16.8l-0.1,0.3c-1,4.8-5.4,8.3-10.3,8.3c-5.8,0-10.5-4.7-10.5-10.5c0-5.8,4.7-10.5,10.5-10.5  c4.8,0,9,3.3,10.2,8l0.1,0.3H29l-0.1-0.4c-1.3-6.7-7.2-11.6-14-11.6C7,0.6,0.6,7,0.6,14.9c0,7.9,6.4,14.3,14.3,14.3  c7,0,12.9-5,14.1-11.9l0.1-0.4H25.2z">
        </path>
    </g>
</svg>