<?xml version="1.0" encoding="utf-8"?>
<!-- Generator: Adobe Illustrator 22.0.0, SVG Export Plug-In . SVG Version: 6.00 Build 0)  -->
<svg version="1.1" id="Icon_Set" xmlns="http://www.w3.org/2000/svg" xmlns:xlink="http://www.w3.org/1999/xlink" x="0px" y="0px"
	 viewBox="0 0 64 64" style="enable-background:new 0 0 64 64;" xml:space="preserve">
<style type="text/css">
	.st0{fill:#C2C2C2;}
	.st1{fill:#212A41;}
	.st2{fill:#E0E0E0;}
	.st3{fill:#FEFEFE;}
	.st4{fill:#005B8A;}
	.st5{fill:#0079A8;}
	.st6{fill:#E0C8A4;}
	.st7{fill:#FEE6C2;}
	.st8{fill:#DB8E11;}
	.st9{fill:#F9AC2F;}
	.st10{fill:#FFCA4D;}
	.st11{fill:#D32E5E;}
	.st12{fill:#B51040;}
	.st13{fill:#6C696F;}
	.st14{fill:#F14C7C;}
	.st15{fill:#4E4B51;}
	.st16{fill:#E8D2A8;}
	.st17{fill:#C2AA86;}
	.st18{fill:#8A878D;}
	.st19{fill:#99A2B9;}
	.st20{fill:#B7C0D7;}
	.st21{fill:#D5DEF5;}
	.st22{fill:#302D33;}
	.st23{fill:#BED38E;}
	.st24{fill:#1E97C6;}
	.st25{fill:#A0B570;}
	.st26{fill:#DCF1AC;}
	.st27{fill:#A4A4A4;}
	.st28{fill:#7B849B;}
	.st29{fill:#BD7000;}
</style>
<g>
	<g>
		<path class="st19" d="M4,58V18h53v40c0,1.105-0.895,2-2,2H6C4.895,60,4,59.105,4,58z"/>
		<path class="st1" d="M55,60.5H6c-1.378,0-2.5-1.122-2.5-2.5V18c0-0.276,0.224-0.5,0.5-0.5h53c0.276,0,0.5,0.224,0.5,0.5v40
			C57.5,59.378,56.379,60.5,55,60.5z M4.5,18.5V58c0,0.827,0.673,1.5,1.5,1.5h49c0.827,0,1.5-0.673,1.5-1.5V18.5H4.5z"/>
	</g>
	<g>
		<path class="st20" d="M7,58V18h53v40c0,1.105-0.895,2-2,2H9C7.895,60,7,59.105,7,58z"/>
		<path class="st1" d="M58,60.5H9c-1.378,0-2.5-1.122-2.5-2.5V18c0-0.276,0.224-0.5,0.5-0.5h53c0.276,0,0.5,0.224,0.5,0.5v40
			C60.5,59.378,59.379,60.5,58,60.5z M7.5,18.5V58c0,0.827,0.673,1.5,1.5,1.5h49c0.827,0,1.5-0.673,1.5-1.5V18.5H7.5z"/>
	</g>
	<g>
		<path class="st0" d="M55,12H6c-1.105,0-2,0.895-2,2v4h53v-4C57,12.895,56.105,12,55,12z"/>
		<path class="st1" d="M57,18.5H4c-0.276,0-0.5-0.224-0.5-0.5v-4c0-1.378,1.122-2.5,2.5-2.5h49c1.379,0,2.5,1.122,2.5,2.5v4
			C57.5,18.276,57.276,18.5,57,18.5z M4.5,17.5h52V14c0-0.827-0.673-1.5-1.5-1.5H6c-0.827,0-1.5,0.673-1.5,1.5V17.5z"/>
	</g>
	<g>
		<path class="st19" d="M58,53.5c-0.276,0-0.5-0.224-0.5-0.5V20c0-0.276,0.224-0.5,0.5-0.5s0.5,0.224,0.5,0.5v33
			C58.5,53.276,58.276,53.5,58,53.5z"/>
	</g>
	<g>
		<path class="st21" d="M9,53.5c-0.276,0-0.5-0.224-0.5-0.5V20c0-0.276,0.224-0.5,0.5-0.5s0.5,0.224,0.5,0.5v33
			C9.5,53.276,9.276,53.5,9,53.5z"/>
	</g>
	<g>
		<path class="st2" d="M58,12H9c-1.105,0-2,0.895-2,2v4h53v-4C60,12.895,59.105,12,58,12z"/>
		<path class="st1" d="M60,18.5H7c-0.276,0-0.5-0.224-0.5-0.5v-4c0-1.378,1.122-2.5,2.5-2.5h49c1.379,0,2.5,1.122,2.5,2.5v4
			C60.5,18.276,60.276,18.5,60,18.5z M7.5,17.5h52V14c0-0.827-0.673-1.5-1.5-1.5H9c-0.827,0-1.5,0.673-1.5,1.5V17.5z"/>
	</g>
	<g>
		<path class="st1" d="M52,15.5h-2c-0.276,0-0.5-0.224-0.5-0.5s0.224-0.5,0.5-0.5h2c0.276,0,0.5,0.224,0.5,0.5S52.276,15.5,52,15.5z
			"/>
	</g>
	<g>
		<path class="st1" d="M57,16.5c-0.128,0-0.256-0.049-0.354-0.146l-2-2c-0.195-0.195-0.195-0.512,0-0.707s0.512-0.195,0.707,0l2,2
			c0.195,0.195,0.195,0.512,0,0.707C57.256,16.451,57.128,16.5,57,16.5z"/>
	</g>
	<g>
		<path class="st1" d="M55,16.5c-0.128,0-0.256-0.049-0.354-0.146c-0.195-0.195-0.195-0.512,0-0.707l2-2
			c0.195-0.195,0.512-0.195,0.707,0s0.195,0.512,0,0.707l-2,2C55.256,16.451,55.128,16.5,55,16.5z"/>
	</g>
	<g>
		<polygon class="st12" points="35.5,39 27.5,39 26.5,35 36.5,35 		"/>
		<path class="st1" d="M35.5,39.5h-8c-0.229,0-0.429-0.156-0.485-0.379l-1-4c-0.038-0.149-0.004-0.308,0.091-0.429
			c0.095-0.122,0.24-0.192,0.394-0.192h10c0.154,0,0.3,0.071,0.395,0.192c0.095,0.121,0.128,0.279,0.091,0.429l-1,4
			C35.93,39.344,35.729,39.5,35.5,39.5z M27.891,38.5h7.219l0.75-3h-8.719L27.891,38.5z"/>
	</g>
	<g>
		<polygon class="st11" points="40.5,33 48.5,33 48.5,28 40.5,20 		"/>
		<path class="st1" d="M48.5,33.5h-8c-0.276,0-0.5-0.224-0.5-0.5V20c0-0.202,0.122-0.385,0.309-0.462
			c0.186-0.077,0.402-0.034,0.545,0.108l8,8C48.947,27.74,49,27.867,49,28v5C49,33.276,48.776,33.5,48.5,33.5z M41,32.5h7v-4.293
			l-7-7V32.5z"/>
	</g>
	<g>
		<polygon class="st11" points="39.5,39 31.5,39 30.5,35 40.5,35 		"/>
		<path class="st1" d="M39.5,39.5h-8c-0.229,0-0.429-0.156-0.485-0.379l-1-4c-0.038-0.149-0.004-0.308,0.091-0.429
			c0.095-0.122,0.24-0.192,0.394-0.192h10c0.154,0,0.3,0.071,0.395,0.192c0.095,0.121,0.128,0.279,0.091,0.429l-1,4
			C39.93,39.344,39.729,39.5,39.5,39.5z M31.891,38.5h7.219l0.75-3h-8.719L31.891,38.5z"/>
	</g>
	<g>
		<path class="st2" d="M59.86,58.722C59.274,56.023,56.875,54,54,54c-1.55,0-2.958,0.593-4.022,1.557C49.746,51.346,46.269,48,42,48
			c-1.669,0-3.218,0.512-4.5,1.387V39h-8v10.387C28.218,48.512,26.669,48,25,48c-4.269,0-7.746,3.346-7.978,7.557
			C15.958,54.593,14.55,54,13,54c-2.875,0-5.274,2.023-5.86,4.722C7.43,59.469,8.151,60,9,60h22.921h3.158H58
			C58.849,60,59.57,59.469,59.86,58.722z"/>
		<path class="st1" d="M58,60.5H9c-1.037,0-1.95-0.627-2.327-1.597c-0.035-0.092-0.043-0.191-0.022-0.287
			C7.294,55.651,9.965,53.5,13,53.5c1.298,0,2.555,0.39,3.624,1.11c0.666-4.054,4.182-7.11,8.376-7.11c1.408,0,2.774,0.343,4,1V39
			c0-0.276,0.224-0.5,0.5-0.5h8c0.276,0,0.5,0.224,0.5,0.5v9.5c1.227-0.656,2.593-1,4-1c4.194,0,7.711,3.056,8.376,7.11
			C51.444,53.89,52.702,53.5,54,53.5c3.035,0,5.705,2.151,6.349,5.116c0.021,0.096,0.014,0.195-0.022,0.287
			C59.95,59.873,59.036,60.5,58,60.5z M7.664,58.673C7.917,59.18,8.428,59.5,9,59.5h49c0.572,0,1.082-0.32,1.336-0.827
			C58.733,56.246,56.515,54.5,54,54.5c-1.361,0-2.671,0.507-3.687,1.428c-0.143,0.13-0.348,0.167-0.526,0.092
			c-0.178-0.073-0.298-0.243-0.309-0.435C49.26,51.612,45.975,48.5,42,48.5c-1.513,0-2.972,0.449-4.219,1.3
			c-0.151,0.105-0.351,0.117-0.515,0.029C37.103,49.742,37,49.572,37,49.387V39.5h-7v9.887c0,0.186-0.103,0.355-0.267,0.442
			c-0.163,0.088-0.362,0.076-0.515-0.029c-1.247-0.851-2.706-1.3-4.218-1.3c-3.976,0-7.26,3.112-7.479,7.084
			c-0.01,0.192-0.13,0.362-0.309,0.435c-0.177,0.073-0.383,0.037-0.525-0.092C15.67,55.007,14.361,54.5,13,54.5
			C10.485,54.5,8.267,56.246,7.664,58.673z"/>
	</g>
	<g>
		<path class="st3" d="M9.54,58.498c-0.085,0-0.172-0.022-0.251-0.068c-0.238-0.139-0.319-0.445-0.18-0.684
			C9.916,56.361,11.407,55.5,13,55.5c1.112,0,2.183,0.415,3.016,1.169c0.426,0.386,1.045,0.494,1.577,0.275s0.896-0.731,0.928-1.305
			C18.709,52.197,21.555,49.5,25,49.5c1.311,0,2.575,0.389,3.655,1.126c0.46,0.313,1.053,0.348,1.546,0.087
			C30.694,50.452,31,49.944,31,49.387V41c0-0.276,0.224-0.5,0.5-0.5S32,40.724,32,41v8.387c0,0.929-0.51,1.776-1.332,2.21
			c-0.821,0.435-1.809,0.379-2.577-0.145C27.178,50.829,26.109,50.5,25,50.5c-2.914,0-5.321,2.281-5.481,5.194
			c-0.053,0.958-0.659,1.811-1.545,2.175c-0.887,0.365-1.919,0.184-2.629-0.459C14.696,56.823,13.863,56.5,13,56.5
			c-1.238,0-2.398,0.67-3.027,1.75C9.879,58.409,9.712,58.498,9.54,58.498z"/>
	</g>
	<g>
		<path class="st0" d="M57.461,58.5c-0.172,0-0.339-0.089-0.432-0.249c-0.63-1.08-1.79-1.751-3.029-1.751
			c-0.863,0-1.696,0.323-2.344,0.91c-0.711,0.644-1.741,0.822-2.629,0.459c-0.887-0.365-1.494-1.219-1.546-2.175
			C47.321,52.782,44.913,50.5,42,50.5c-1.108,0-2.178,0.329-3.092,0.952c-0.768,0.523-1.756,0.58-2.576,0.145
			C35.511,51.163,35,50.316,35,49.387V41c0-0.276,0.224-0.5,0.5-0.5S36,40.724,36,41v8.387c0,0.558,0.307,1.065,0.799,1.326
			c0.491,0.26,1.085,0.228,1.547-0.087C39.426,49.889,40.689,49.5,42,49.5c3.444,0,6.29,2.697,6.479,6.14
			c0.031,0.574,0.396,1.086,0.929,1.305c0.53,0.219,1.148,0.109,1.576-0.276C51.817,55.915,52.888,55.5,54,55.5
			c1.594,0,3.085,0.861,3.893,2.249c0.14,0.238,0.059,0.544-0.18,0.684C57.634,58.478,57.547,58.5,57.461,58.5z"/>
	</g>
	<g>
		<path class="st1" d="M21,56.5c-0.276,0-0.5-0.224-0.5-0.5c0-2.481,2.019-4.5,4.5-4.5c0.276,0,0.5,0.224,0.5,0.5
			s-0.224,0.5-0.5,0.5c-1.93,0-3.5,1.57-3.5,3.5C21.5,56.276,21.276,56.5,21,56.5z"/>
	</g>
	<g>
		<path class="st1" d="M46,56.5c-0.276,0-0.5-0.224-0.5-0.5c0-1.93-1.57-3.5-3.5-3.5c-0.276,0-0.5-0.224-0.5-0.5s0.224-0.5,0.5-0.5
			c2.481,0,4.5,2.019,4.5,4.5C46.5,56.276,46.276,56.5,46,56.5z"/>
	</g>
	<g>
		<path class="st12" d="M46.5,31.5c-0.276,0-0.5-0.224-0.5-0.5v-1.964l-3.854-3.854c-0.195-0.195-0.195-0.512,0-0.707
			s0.512-0.195,0.707,0l4,4C46.947,28.569,47,28.696,47,28.829V31C47,31.276,46.776,31.5,46.5,31.5z"/>
	</g>
	<g>
		<path class="st11" d="M35.5,4l-4.261,5.244C29.791,11.027,29,13.254,29,15.55V34c0,0.552,0.448,1,1,1h11c0.552,0,1-0.448,1-1
			V15.55c0-2.297-0.791-4.523-2.239-6.306L35.5,4z"/>
		<path class="st1" d="M41,35.5H30c-0.827,0-1.5-0.673-1.5-1.5V15.55c0-2.404,0.835-4.755,2.351-6.621l4.262-5.245
			c0.189-0.233,0.586-0.233,0.775,0l4.261,5.245c1.517,1.866,2.352,4.217,2.352,6.621V34C42.5,34.827,41.827,35.5,41,35.5z
			 M35.5,4.793L31.627,9.56c-1.372,1.688-2.127,3.815-2.127,5.99V34c0,0.276,0.224,0.5,0.5,0.5h11c0.275,0,0.5-0.224,0.5-0.5V15.55
			c0-2.175-0.756-4.302-2.127-5.99L35.5,4.793z"/>
	</g>
	<g>
		<path class="st12" d="M29,34V15.55c0-2.297,0.791-4.523,2.239-6.306L35.5,4H31l-4,5.333c-1.298,1.731-2,3.836-2,6V34
			c0,0.552,0.448,1,1,1h4C29.448,35,29,34.552,29,34z"/>
		<path class="st1" d="M30,35.5h-4c-0.827,0-1.5-0.673-1.5-1.5V15.333c0-2.257,0.746-4.494,2.1-6.299l4-5.333
			c0.094-0.126,0.243-0.2,0.4-0.2h4.5c0.193,0,0.368,0.111,0.451,0.285s0.059,0.38-0.063,0.53L31.627,9.56
			c-1.372,1.688-2.127,3.815-2.127,5.99V34c0,0.276,0.224,0.5,0.5,0.5c0.276,0,0.5,0.224,0.5,0.5S30.276,35.5,30,35.5z M31.25,4.5
			L27.4,9.633c-1.225,1.634-1.9,3.658-1.9,5.7V34c0,0.276,0.224,0.5,0.5,0.5h2.585C28.53,34.344,28.5,34.175,28.5,34V15.55
			c0-2.404,0.835-4.755,2.351-6.621L34.449,4.5H31.25z"/>
	</g>
	<g>
		<path class="st8" d="M25,16v18c0,0.552,0.448,1,1,1h11c0.552,0,1-0.448,1-1V16H25z"/>
		<path class="st1" d="M37,35.5H26c-0.827,0-1.5-0.673-1.5-1.5V16c0-0.276,0.224-0.5,0.5-0.5h13c0.276,0,0.5,0.224,0.5,0.5v18
			C38.5,34.827,37.827,35.5,37,35.5z M25.5,16.5V34c0,0.276,0.224,0.5,0.5,0.5h11c0.275,0,0.5-0.224,0.5-0.5V16.5H25.5z"/>
	</g>
	<g>
		<path class="st9" d="M29,16v18c0,0.552,0.448,1,1,1h11c0.552,0,1-0.448,1-1V16H29z"/>
		<path class="st1" d="M41,35.5H30c-0.827,0-1.5-0.673-1.5-1.5V16c0-0.276,0.224-0.5,0.5-0.5h13c0.276,0,0.5,0.224,0.5,0.5v18
			C42.5,34.827,41.827,35.5,41,35.5z M29.5,16.5V34c0,0.276,0.224,0.5,0.5,0.5h11c0.275,0,0.5-0.224,0.5-0.5V16.5H29.5z"/>
	</g>
	<g>
		<polygon class="st11" points="26.5,33 18.5,33 18.5,28 26.5,20 		"/>
		<path class="st1" d="M26.5,33.5h-8c-0.276,0-0.5-0.224-0.5-0.5v-5c0-0.133,0.053-0.26,0.146-0.354l8-8
			c0.143-0.143,0.358-0.186,0.545-0.108C26.878,19.615,27,19.798,27,20v13C27,33.276,26.776,33.5,26.5,33.5z M19,32.5h7V21.207l-7,7
			V32.5z"/>
	</g>
	<g>
		<path class="st14" d="M20.5,31.5c-0.276,0-0.5-0.224-0.5-0.5v-2.171c0-0.133,0.053-0.26,0.146-0.354l4-4
			c0.195-0.195,0.512-0.195,0.707,0s0.195,0.512,0,0.707L21,29.036V31C21,31.276,20.776,31.5,20.5,31.5z"/>
	</g>
	<g>
		<path class="st10" d="M31,32.5c-0.276,0-0.5-0.224-0.5-0.5V18c0-0.276,0.224-0.5,0.5-0.5s0.5,0.224,0.5,0.5v14
			C31.5,32.276,31.276,32.5,31,32.5z"/>
	</g>
	<g>
		<path class="st8" d="M40,32.5c-0.276,0-0.5-0.224-0.5-0.5V18c0-0.276,0.224-0.5,0.5-0.5s0.5,0.224,0.5,0.5v14
			C40.5,32.276,40.276,32.5,40,32.5z"/>
	</g>
	<g>
		<circle class="st20" cx="35.5" cy="16" r="4"/>
		<path class="st1" d="M35.5,20.5c-2.481,0-4.5-2.019-4.5-4.5s2.019-4.5,4.5-4.5S40,13.519,40,16S37.981,20.5,35.5,20.5z M35.5,12.5
			c-1.93,0-3.5,1.57-3.5,3.5s1.57,3.5,3.5,3.5S39,17.93,39,16S37.43,12.5,35.5,12.5z"/>
	</g>
	<g>
		<path class="st19" d="M35.5,18.5c-0.276,0-0.5-0.224-0.5-0.5s0.224-0.5,0.5-0.5c0.827,0,1.5-0.673,1.5-1.5
			c0-0.276,0.224-0.5,0.5-0.5S38,15.724,38,16C38,17.378,36.879,18.5,35.5,18.5z"/>
	</g>
	<g>
		<path class="st21" d="M33.5,16.5c-0.276,0-0.5-0.224-0.5-0.5c0-1.378,1.121-2.5,2.5-2.5c0.276,0,0.5,0.224,0.5,0.5
			s-0.224,0.5-0.5,0.5c-0.827,0-1.5,0.673-1.5,1.5C34,16.276,33.776,16.5,33.5,16.5z"/>
	</g>
</g>
</svg>
