<?xml version="1.0" encoding="utf-8"?>
<!-- Generator: Adobe Illustrator 22.0.0, SVG Export Plug-In . SVG Version: 6.00 Build 0)  -->
<svg version="1.1" id="Icon_Set" xmlns="http://www.w3.org/2000/svg" xmlns:xlink="http://www.w3.org/1999/xlink" x="0px" y="0px"
	 viewBox="0 0 64 64" style="enable-background:new 0 0 64 64;" xml:space="preserve">
<style type="text/css">
	.st0{fill:#C2C2C2;}
	.st1{fill:#212A41;}
	.st2{fill:#E0E0E0;}
	.st3{fill:#FEFEFE;}
	.st4{fill:#005B8A;}
	.st5{fill:#0079A8;}
	.st6{fill:#E0C8A4;}
	.st7{fill:#FEE6C2;}
	.st8{fill:#DB8E11;}
	.st9{fill:#F9AC2F;}
	.st10{fill:#FFCA4D;}
	.st11{fill:#D32E5E;}
	.st12{fill:#B51040;}
	.st13{fill:#6C696F;}
	.st14{fill:#F14C7C;}
	.st15{fill:#4E4B51;}
	.st16{fill:#E8D2A8;}
	.st17{fill:#C2AA86;}
	.st18{fill:#8A878D;}
	.st19{fill:#99A2B9;}
	.st20{fill:#B7C0D7;}
	.st21{fill:#D5DEF5;}
	.st22{fill:#302D33;}
	.st23{fill:#BED38E;}
	.st24{fill:#1E97C6;}
	.st25{fill:#A0B570;}
	.st26{fill:#DCF1AC;}
	.st27{fill:#A4A4A4;}
	.st28{fill:#7B849B;}
	.st29{fill:#BD7000;}
</style>
<g>
	<g>
		<path class="st19" d="M44,59H6c-0.552,0-1-0.448-1-1V21h40v37C45,58.552,44.552,59,44,59z"/>
		<path class="st1" d="M44,59.5H6c-0.827,0-1.5-0.673-1.5-1.5V21c0-0.276,0.224-0.5,0.5-0.5h40c0.276,0,0.5,0.224,0.5,0.5v37
			C45.5,58.827,44.827,59.5,44,59.5z M5.5,21.5V58c0,0.276,0.224,0.5,0.5,0.5h38c0.276,0,0.5-0.224,0.5-0.5V21.5H5.5z"/>
	</g>
	<g>
		<path class="st19" d="M45,21H5c-0.552,0-1-0.448-1-1v-8c0-0.552,0.448-1,1-1h40c0.552,0,1,0.448,1,1v8C46,20.552,45.552,21,45,21z
			"/>
		<path class="st1" d="M45,21.5H5c-0.827,0-1.5-0.673-1.5-1.5v-8c0-0.827,0.673-1.5,1.5-1.5h40c0.827,0,1.5,0.673,1.5,1.5v8
			C46.5,20.827,45.827,21.5,45,21.5z M5,11.5c-0.276,0-0.5,0.224-0.5,0.5v8c0,0.276,0.224,0.5,0.5,0.5h40c0.276,0,0.5-0.224,0.5-0.5
			v-8c0-0.276-0.224-0.5-0.5-0.5H5z"/>
	</g>
	<g>
		<path class="st20" d="M58,59H20c-0.552,0-1-0.448-1-1V21h40v37C59,58.552,58.552,59,58,59z"/>
		<path class="st1" d="M58,59.5H20c-0.827,0-1.5-0.673-1.5-1.5V21c0-0.276,0.224-0.5,0.5-0.5h40c0.276,0,0.5,0.224,0.5,0.5v37
			C59.5,58.827,58.827,59.5,58,59.5z M19.5,21.5V58c0,0.276,0.224,0.5,0.5,0.5h38c0.276,0,0.5-0.224,0.5-0.5V21.5H19.5z"/>
	</g>
	<g>
		<path class="st20" d="M59,21H19c-0.552,0-1-0.448-1-1v-8c0-0.552,0.448-1,1-1h40c0.552,0,1,0.448,1,1v8C60,20.552,59.552,21,59,21
			z"/>
		<path class="st1" d="M59,21.5H19c-0.827,0-1.5-0.673-1.5-1.5v-8c0-0.827,0.673-1.5,1.5-1.5h40c0.827,0,1.5,0.673,1.5,1.5v8
			C60.5,20.827,59.827,21.5,59,21.5z M19,11.5c-0.276,0-0.5,0.224-0.5,0.5v8c0,0.276,0.224,0.5,0.5,0.5h40
			c0.276,0,0.5-0.224,0.5-0.5v-8c0-0.276-0.224-0.5-0.5-0.5H19z"/>
	</g>
	<g>
		<path class="st9" d="M39.905,29.686l2.576,5.489c0.142,0.302,0.425,0.513,0.754,0.564l5.841,0.892
			c0.805,0.123,1.133,1.104,0.565,1.687l-4.288,4.395c-0.222,0.227-0.322,0.546-0.271,0.859l1.004,6.153
			c0.134,0.824-0.74,1.44-1.471,1.036l-5.13-2.836c-0.301-0.166-0.667-0.166-0.968,0l-5.13,2.836
			c-0.731,0.404-1.605-0.212-1.471-1.036l1.004-6.153c0.051-0.313-0.05-0.632-0.271-0.859l-4.288-4.395
			c-0.568-0.583-0.24-1.564,0.565-1.687l5.841-0.892c0.33-0.05,0.613-0.262,0.754-0.564l2.576-5.489
			C38.455,28.92,39.545,28.92,39.905,29.686z"/>
		<path class="st1" d="M45.099,51.388c-0.249,0-0.498-0.062-0.727-0.189l-5.13-2.836c-0.152-0.084-0.332-0.084-0.484,0l-5.13,2.836
			c-0.506,0.28-1.116,0.247-1.589-0.086s-0.71-0.896-0.617-1.468l1.004-6.153c0.025-0.156-0.025-0.316-0.136-0.43l-4.289-4.396
			c-0.395-0.404-0.528-0.988-0.349-1.523s0.638-0.921,1.196-1.007l5.84-0.892c0.166-0.025,0.307-0.131,0.377-0.282l2.576-5.489
			c0.25-0.532,0.77-0.863,1.358-0.863s1.108,0.331,1.358,0.863l2.576,5.489c0.071,0.151,0.212,0.256,0.377,0.282l5.841,0.892
			c0.558,0.085,1.017,0.471,1.196,1.007s0.046,1.119-0.349,1.523l-4.289,4.396c-0.11,0.113-0.161,0.274-0.136,0.43l1.004,6.152
			c0.093,0.572-0.143,1.134-0.617,1.468C45.702,51.296,45.401,51.388,45.099,51.388z M39,29.611c-0.075,0-0.327,0.021-0.453,0.288
			l-2.576,5.489c-0.213,0.454-0.636,0.77-1.132,0.845L29,37.125c-0.189,0.029-0.338,0.155-0.399,0.336s-0.017,0.371,0.116,0.508
			l4.289,4.396c0.331,0.339,0.483,0.82,0.407,1.289l-1.004,6.153c-0.032,0.193,0.045,0.376,0.206,0.489
			c0.159,0.112,0.358,0.124,0.53,0.029l5.13-2.836c0.455-0.251,0.998-0.25,1.451,0l5.13,2.836c0.171,0.094,0.37,0.083,0.53-0.029
			c0.161-0.113,0.237-0.296,0.206-0.489l-1.004-6.153c-0.076-0.469,0.077-0.95,0.407-1.289l4.289-4.396
			c0.133-0.137,0.177-0.327,0.116-0.508s-0.21-0.307-0.399-0.336l-5.84-0.892c-0.496-0.076-0.918-0.392-1.131-0.845l-2.576-5.489
			l0,0C39.327,29.632,39.075,29.611,39,29.611z"/>
	</g>
	<g>
		<path class="st10" d="M31.149,38.814c-0.243,0-0.456-0.177-0.494-0.424c-0.042-0.273,0.146-0.528,0.418-0.57l3.917-0.598
			c0.827-0.126,1.532-0.653,1.886-1.409l1.671-3.56c0.117-0.249,0.413-0.358,0.665-0.24c0.25,0.117,0.357,0.415,0.24,0.665
			l-1.671,3.56c-0.497,1.059-1.483,1.796-2.64,1.973l-3.917,0.598C31.199,38.812,31.174,38.814,31.149,38.814z"/>
	</g>
	<g>
		<polygon class="st2" points="55,26 45,26 45,14 50,10 55,14 		"/>
		<path class="st1" d="M55,26.5H45c-0.276,0-0.5-0.224-0.5-0.5V14c0-0.152,0.069-0.295,0.188-0.391l5-4
			c0.183-0.146,0.442-0.146,0.625,0l5,4C55.431,13.705,55.5,13.848,55.5,14v12C55.5,26.276,55.276,26.5,55,26.5z M45.5,25.5h9V14.24
			l-4.5-3.6l-4.5,3.6V25.5z"/>
	</g>
	<g>
		<path class="st1" d="M50,13.5c-0.276,0-0.5-0.224-0.5-0.5V9c0-1.93-1.57-3.5-3.5-3.5S42.5,7.07,42.5,9v2
			c0,0.276-0.224,0.5-0.5,0.5s-0.5-0.224-0.5-0.5V9c0-2.481,2.019-4.5,4.5-4.5s4.5,2.019,4.5,4.5v4C50.5,13.276,50.276,13.5,50,13.5
			z"/>
	</g>
	<g>
		<path class="st1" d="M52,23.5h-4c-0.276,0-0.5-0.224-0.5-0.5s0.224-0.5,0.5-0.5h4c0.276,0,0.5,0.224,0.5,0.5S52.276,23.5,52,23.5z
			"/>
	</g>
	<g>
		<circle class="st9" cx="50" cy="17.5" r="2"/>
		<path class="st1" d="M50,20c-1.378,0-2.5-1.122-2.5-2.5S48.622,15,50,15s2.5,1.122,2.5,2.5S51.378,20,50,20z M50,16
			c-0.827,0-1.5,0.673-1.5,1.5S49.173,19,50,19s1.5-0.673,1.5-1.5S50.827,16,50,16z"/>
	</g>
	<g>
		<path class="st21" d="M21,57.5c-0.276,0-0.5-0.224-0.5-0.5V23c0-0.276,0.224-0.5,0.5-0.5s0.5,0.224,0.5,0.5v34
			C21.5,57.276,21.276,57.5,21,57.5z"/>
	</g>
	<g>
		<path class="st20" d="M7,57.5c-0.276,0-0.5-0.224-0.5-0.5V23c0-0.276,0.224-0.5,0.5-0.5s0.5,0.224,0.5,0.5v34
			C7.5,57.276,7.276,57.5,7,57.5z"/>
	</g>
	<g>
		<path class="st28" d="M17,57.5c-0.276,0-0.5-0.224-0.5-0.5V23c0-0.276,0.224-0.5,0.5-0.5s0.5,0.224,0.5,0.5v34
			C17.5,57.276,17.276,57.5,17,57.5z"/>
	</g>
	<g>
		<path class="st19" d="M57,57.5c-0.276,0-0.5-0.224-0.5-0.5V23c0-0.276,0.224-0.5,0.5-0.5s0.5,0.224,0.5,0.5v34
			C57.5,57.276,57.276,57.5,57,57.5z"/>
	</g>
	<g>
		<path class="st21" d="M20,19.5c-0.276,0-0.5-0.224-0.5-0.5v-6c0-0.276,0.224-0.5,0.5-0.5s0.5,0.224,0.5,0.5v6
			C20.5,19.276,20.276,19.5,20,19.5z"/>
	</g>
	<g>
		<path class="st20" d="M6,19.5c-0.276,0-0.5-0.224-0.5-0.5v-6c0-0.276,0.224-0.5,0.5-0.5s0.5,0.224,0.5,0.5v6
			C6.5,19.276,6.276,19.5,6,19.5z"/>
	</g>
	<g>
		<path class="st28" d="M16,19.5c-0.276,0-0.5-0.224-0.5-0.5v-6c0-0.276,0.224-0.5,0.5-0.5s0.5,0.224,0.5,0.5v6
			C16.5,19.276,16.276,19.5,16,19.5z"/>
	</g>
	<g>
		<path class="st19" d="M58,19.5c-0.276,0-0.5-0.224-0.5-0.5v-6c0-0.276,0.224-0.5,0.5-0.5s0.5,0.224,0.5,0.5v6
			C58.5,19.276,58.276,19.5,58,19.5z"/>
	</g>
	<g>
		<path class="st8" d="M43.779,48.515c-0.083,0-0.167-0.021-0.242-0.062l-3.327-1.839c-0.242-0.133-0.33-0.438-0.196-0.679
			c0.133-0.242,0.438-0.33,0.679-0.196l2.426,1.341l-0.506-3.104c-0.044-0.272,0.141-0.53,0.413-0.574
			c0.278-0.045,0.53,0.141,0.574,0.413l0.672,4.12c0.031,0.189-0.049,0.379-0.206,0.489C43.981,48.484,43.88,48.515,43.779,48.515z"
			/>
	</g>
</g>
</svg>
