<?xml version="1.0" encoding="utf-8"?>
<!-- Generator: Adobe Illustrator 22.0.0, SVG Export Plug-In . SVG Version: 6.00 Build 0)  -->
<svg version="1.1" id="Icon_Set" xmlns="http://www.w3.org/2000/svg" xmlns:xlink="http://www.w3.org/1999/xlink" x="0px" y="0px"
	 viewBox="0 0 64 64" style="enable-background:new 0 0 64 64;" xml:space="preserve">
<style type="text/css">
	.st0{fill:#C2C2C2;}
	.st1{fill:#212A41;}
	.st2{fill:#E0E0E0;}
	.st3{fill:#FEFEFE;}
	.st4{fill:#005B8A;}
	.st5{fill:#0079A8;}
	.st6{fill:#E0C8A4;}
	.st7{fill:#FEE6C2;}
	.st8{fill:#DB8E11;}
	.st9{fill:#F9AC2F;}
	.st10{fill:#FFCA4D;}
	.st11{fill:#D32E5E;}
	.st12{fill:#B51040;}
	.st13{fill:#6C696F;}
	.st14{fill:#F14C7C;}
	.st15{fill:#4E4B51;}
	.st16{fill:#E8D2A8;}
	.st17{fill:#C2AA86;}
	.st18{fill:#8A878D;}
	.st19{fill:#99A2B9;}
	.st20{fill:#B7C0D7;}
	.st21{fill:#D5DEF5;}
	.st22{fill:#302D33;}
	.st23{fill:#BED38E;}
	.st24{fill:#1E97C6;}
	.st25{fill:#A0B570;}
	.st26{fill:#DCF1AC;}
	.st27{fill:#A4A4A4;}
	.st28{fill:#7B849B;}
	.st29{fill:#BD7000;}
</style>
<g>
	<g>
		<path class="st19" d="M4,51V11h53v40c0,1.105-0.895,2-2,2H6C4.895,53,4,52.105,4,51z"/>
		<path class="st1" d="M55,53.5H6c-1.378,0-2.5-1.122-2.5-2.5V11c0-0.276,0.224-0.5,0.5-0.5h53c0.276,0,0.5,0.224,0.5,0.5v40
			C57.5,52.378,56.379,53.5,55,53.5z M4.5,11.5V51c0,0.827,0.673,1.5,1.5,1.5h49c0.827,0,1.5-0.673,1.5-1.5V11.5H4.5z"/>
	</g>
	<g>
		<path class="st20" d="M7,51V11h53v40c0,1.105-0.895,2-2,2H9C7.895,53,7,52.105,7,51z"/>
		<path class="st1" d="M58,53.5H9c-1.378,0-2.5-1.122-2.5-2.5V11c0-0.276,0.224-0.5,0.5-0.5h53c0.276,0,0.5,0.224,0.5,0.5v40
			C60.5,52.378,59.379,53.5,58,53.5z M7.5,11.5V51c0,0.827,0.673,1.5,1.5,1.5h49c0.827,0,1.5-0.673,1.5-1.5V11.5H7.5z"/>
	</g>
	<g>
		<path class="st0" d="M55,5H6C4.895,5,4,5.895,4,7v4h53V7C57,5.895,56.105,5,55,5z"/>
		<path class="st1" d="M57,11.5H4c-0.276,0-0.5-0.224-0.5-0.5V7c0-1.378,1.122-2.5,2.5-2.5h49c1.379,0,2.5,1.122,2.5,2.5v4
			C57.5,11.276,57.276,11.5,57,11.5z M4.5,10.5h52V7c0-0.827-0.673-1.5-1.5-1.5H6C5.173,5.5,4.5,6.173,4.5,7V10.5z"/>
	</g>
	<g>
		<path class="st19" d="M58,51.5c-0.276,0-0.5-0.224-0.5-0.5V13c0-0.276,0.224-0.5,0.5-0.5s0.5,0.224,0.5,0.5v38
			C58.5,51.276,58.276,51.5,58,51.5z"/>
	</g>
	<g>
		<path class="st21" d="M9,51.5c-0.276,0-0.5-0.224-0.5-0.5V13c0-0.276,0.224-0.5,0.5-0.5s0.5,0.224,0.5,0.5v38
			C9.5,51.276,9.276,51.5,9,51.5z"/>
	</g>
	<g>
		<path class="st2" d="M58,5H9C7.895,5,7,5.895,7,7v4h53V7C60,5.895,59.105,5,58,5z"/>
		<path class="st1" d="M60,11.5H7c-0.276,0-0.5-0.224-0.5-0.5V7c0-1.378,1.122-2.5,2.5-2.5h49c1.379,0,2.5,1.122,2.5,2.5v4
			C60.5,11.276,60.276,11.5,60,11.5z M7.5,10.5h52V7c0-0.827-0.673-1.5-1.5-1.5H9C8.173,5.5,7.5,6.173,7.5,7V10.5z"/>
	</g>
	<g>
		<path class="st1" d="M52,8.5h-2c-0.276,0-0.5-0.224-0.5-0.5s0.224-0.5,0.5-0.5h2c0.276,0,0.5,0.224,0.5,0.5S52.276,8.5,52,8.5z"/>
	</g>
	<g>
		<path class="st1" d="M57,9.5c-0.128,0-0.256-0.049-0.354-0.146l-2-2c-0.195-0.195-0.195-0.512,0-0.707s0.512-0.195,0.707,0l2,2
			c0.195,0.195,0.195,0.512,0,0.707C57.256,9.451,57.128,9.5,57,9.5z"/>
	</g>
	<g>
		<path class="st1" d="M55,9.5c-0.128,0-0.256-0.049-0.354-0.146c-0.195-0.195-0.195-0.512,0-0.707l2-2
			c0.195-0.195,0.512-0.195,0.707,0s0.195,0.512,0,0.707l-2,2C55.256,9.451,55.128,9.5,55,9.5z"/>
	</g>
	<g>
		<path class="st2" d="M46.683,31.577C46.398,31.213,45.962,31,45.5,31H23.581l-0.658-1.974C22.719,28.413,22.146,28,21.5,28h-4
			c-0.829,0-1.5,0.671-1.5,1.5s0.671,1.5,1.5,1.5h2.919l0.658,1.974l4,12C25.281,45.587,25.854,46,26.5,46h16
			c0.688,0,1.288-0.468,1.455-1.136l3-12C47.067,32.416,46.967,31.941,46.683,31.577z M43.579,34l-0.75,3H25.581l-1-3H43.579z
			 M27.581,43l-1-3h15.498l-0.75,3H27.581z"/>
		<path class="st1" d="M42.5,46.5h-16c-0.862,0-1.625-0.55-1.897-1.368L20.059,31.5H17.5c-1.103,0-2-0.897-2-2s0.897-2,2-2h4
			c0.862,0,1.625,0.55,1.897,1.368l0.544,1.632H45.5c0.62,0,1.195,0.28,1.576,0.769c0.001,0,0.001,0,0.001,0
			c0.381,0.489,0.514,1.115,0.363,1.716l-3,12C44.217,45.877,43.419,46.5,42.5,46.5z M17.5,28.5c-0.551,0-1,0.449-1,1s0.449,1,1,1
			h2.919c0.215,0,0.406,0.138,0.474,0.342l4.658,13.974c0.137,0.409,0.518,0.684,0.949,0.684h16c0.46,0,0.858-0.312,0.97-0.757l3-12
			c0.076-0.301,0.01-0.614-0.182-0.858C46.101,31.644,45.806,31.5,45.5,31.5H23.581c-0.215,0-0.406-0.138-0.474-0.342l-0.658-1.974
			C22.312,28.775,21.931,28.5,21.5,28.5H17.5z M41.329,43.5H27.581c-0.215,0-0.406-0.138-0.474-0.342l-1-3
			c-0.051-0.152-0.025-0.32,0.068-0.451c0.094-0.13,0.245-0.208,0.406-0.208h15.498c0.154,0,0.3,0.071,0.395,0.192
			c0.095,0.121,0.128,0.279,0.091,0.429l-0.75,3C41.759,43.344,41.559,43.5,41.329,43.5z M27.941,42.5h12.997l0.5-2H27.275
			L27.941,42.5z M42.829,37.5H25.581c-0.215,0-0.406-0.138-0.474-0.342l-1-3c-0.051-0.152-0.025-0.32,0.068-0.451
			c0.094-0.13,0.245-0.208,0.406-0.208h18.998c0.154,0,0.3,0.071,0.395,0.192c0.095,0.121,0.128,0.279,0.091,0.429l-0.75,3
			C43.259,37.344,43.059,37.5,42.829,37.5z M25.941,36.5h16.497l0.5-2H25.275L25.941,36.5z"/>
	</g>
	<g>
		<circle class="st2" cx="41.33" cy="48" r="2"/>
		<path class="st1" d="M41.33,50.5c-1.379,0-2.5-1.122-2.5-2.5s1.121-2.5,2.5-2.5s2.5,1.122,2.5,2.5S42.709,50.5,41.33,50.5z
			 M41.33,46.5c-0.827,0-1.5,0.673-1.5,1.5s0.673,1.5,1.5,1.5s1.5-0.673,1.5-1.5S42.157,46.5,41.33,46.5z"/>
	</g>
	<g>
		<circle class="st2" cx="27.33" cy="48" r="2"/>
		<path class="st1" d="M27.33,50.5c-1.378,0-2.5-1.122-2.5-2.5s1.122-2.5,2.5-2.5s2.5,1.122,2.5,2.5S28.708,50.5,27.33,50.5z
			 M27.33,46.5c-0.827,0-1.5,0.673-1.5,1.5s0.673,1.5,1.5,1.5s1.5-0.673,1.5-1.5S28.157,46.5,27.33,46.5z"/>
	</g>
	<g>
		<polygon class="st11" points="43,45 43,57 47,53 53,59 57,55 51,49 55,45 		"/>
		<path class="st1" d="M53,59.5c-0.128,0-0.256-0.049-0.354-0.146L47,53.707l-3.646,3.646c-0.144,0.143-0.36,0.187-0.545,0.108
			C42.622,57.385,42.5,57.202,42.5,57V45c0-0.276,0.224-0.5,0.5-0.5h12c0.202,0,0.385,0.122,0.462,0.309s0.034,0.402-0.108,0.545
			L51.707,49l5.646,5.646c0.195,0.195,0.195,0.512,0,0.707l-4,4C53.256,59.451,53.128,59.5,53,59.5z M47,52.5
			c0.128,0,0.256,0.049,0.354,0.146L53,58.293L56.293,55l-5.646-5.646c-0.195-0.195-0.195-0.512,0-0.707l3.146-3.146H43.5v10.293
			l3.146-3.146C46.744,52.549,46.872,52.5,47,52.5z"/>
	</g>
	<g>
		<path class="st9" d="M40.08,25c0-3.553-3.088-6.384-6.726-5.957c-2.621,0.307-4.793,2.388-5.199,4.996
			c-0.315,2.025,0.386,3.894,1.669,5.185c0.776,0.78,1.256,1.805,1.256,2.905l0,2.872c0,1.105,0.895,2,2,2h2c1.105,0,2-0.895,2-2
			v-2.876c0-1.067,0.426-2.091,1.19-2.836C39.386,28.2,40.08,26.682,40.08,25z"/>
		<path class="st1" d="M35.08,37.5h-2c-1.378,0-2.5-1.122-2.5-2.5v-2.872c0-0.927-0.395-1.833-1.11-2.553
			c-1.474-1.482-2.133-3.528-1.809-5.614c0.436-2.806,2.806-5.083,5.635-5.416c1.864-0.218,3.718,0.364,5.103,1.596
			c1.387,1.233,2.182,3.004,2.182,4.858c0,1.762-0.696,3.412-1.96,4.646c-0.661,0.644-1.04,1.547-1.04,2.478V35
			C37.58,36.378,36.459,37.5,35.08,37.5z M34.088,19.5c-0.224,0-0.448,0.013-0.675,0.04c-2.392,0.281-4.395,2.205-4.764,4.576
			c-0.275,1.768,0.282,3.501,1.529,4.755c0.904,0.908,1.401,2.065,1.401,3.258V35c0,0.827,0.673,1.5,1.5,1.5h2
			c0.827,0,1.5-0.673,1.5-1.5v-2.876c0-1.199,0.489-2.363,1.342-3.194c1.069-1.044,1.658-2.439,1.658-3.93
			c0-1.569-0.673-3.067-1.846-4.111C36.714,19.981,35.438,19.5,34.088,19.5z"/>
	</g>
	<g>
		<path class="st10" d="M30.131,24.846c-0.025,0-0.051-0.002-0.078-0.006c-0.272-0.042-0.459-0.298-0.417-0.571
			c0.301-1.935,1.938-3.506,3.892-3.736c0.186-0.022,0.37-0.033,0.554-0.033c0.276,0,0.5,0.224,0.5,0.5s-0.224,0.5-0.5,0.5
			c-0.145,0-0.29,0.009-0.437,0.026c-1.517,0.178-2.787,1.396-3.021,2.897C30.586,24.669,30.374,24.846,30.131,24.846z"/>
	</g>
	<g>
		<path class="st2" d="M37.08,33h-6v2c0,1.105,0.895,2,2,2h2c1.105,0,2-0.895,2-2V33z"/>
		<path class="st1" d="M35.08,37.5h-2c-1.378,0-2.5-1.122-2.5-2.5v-2c0-0.276,0.224-0.5,0.5-0.5h6c0.276,0,0.5,0.224,0.5,0.5v2
			C37.58,36.378,36.459,37.5,35.08,37.5z M31.58,33.5V35c0,0.827,0.673,1.5,1.5,1.5h2c0.827,0,1.5-0.673,1.5-1.5v-1.5H31.58z"/>
	</g>
	<g>
		<path class="st1" d="M34.08,16.5c-0.276,0-0.5-0.224-0.5-0.5v-2c0-0.276,0.224-0.5,0.5-0.5s0.5,0.224,0.5,0.5v2
			C34.58,16.276,34.356,16.5,34.08,16.5z"/>
	</g>
	<g>
		<path class="st1" d="M45.08,25.5h-2c-0.276,0-0.5-0.224-0.5-0.5s0.224-0.5,0.5-0.5h2c0.276,0,0.5,0.224,0.5,0.5
			S45.356,25.5,45.08,25.5z"/>
	</g>
	<g>
		<path class="st1" d="M25.08,25.5h-2c-0.276,0-0.5-0.224-0.5-0.5s0.224-0.5,0.5-0.5h2c0.276,0,0.5,0.224,0.5,0.5
			S25.356,25.5,25.08,25.5z"/>
	</g>
	<g>
		<path class="st1" d="M27.716,19.136c-0.128,0-0.256-0.049-0.354-0.146l-1.415-1.415c-0.195-0.195-0.195-0.512,0-0.707
			s0.512-0.195,0.707,0l1.415,1.415c0.195,0.195,0.195,0.512,0,0.707C27.972,19.087,27.844,19.136,27.716,19.136z"/>
	</g>
	<g>
		<path class="st1" d="M40.444,19.136c-0.128,0-0.256-0.049-0.354-0.146c-0.195-0.195-0.195-0.512,0-0.707l1.414-1.415
			c0.195-0.195,0.512-0.195,0.707,0s0.195,0.512,0,0.707l-1.414,1.415C40.7,19.087,40.572,19.136,40.444,19.136z"/>
	</g>
</g>
</svg>
