<?xml version="1.0" encoding="utf-8"?>
<!-- Generator: Adobe Illustrator 22.0.0, SVG Export Plug-In . SVG Version: 6.00 Build 0)  -->
<svg version="1.1" id="Icon_Set" xmlns="http://www.w3.org/2000/svg" xmlns:xlink="http://www.w3.org/1999/xlink" x="0px" y="0px"
	 viewBox="0 0 64 64" style="enable-background:new 0 0 64 64;" xml:space="preserve">
<style type="text/css">
	.st0{fill:#C2C2C2;}
	.st1{fill:#212A41;}
	.st2{fill:#E0E0E0;}
	.st3{fill:#FEFEFE;}
	.st4{fill:#005B8A;}
	.st5{fill:#0079A8;}
	.st6{fill:#E0C8A4;}
	.st7{fill:#FEE6C2;}
	.st8{fill:#DB8E11;}
	.st9{fill:#F9AC2F;}
	.st10{fill:#FFCA4D;}
	.st11{fill:#D32E5E;}
	.st12{fill:#B51040;}
	.st13{fill:#6C696F;}
	.st14{fill:#F14C7C;}
	.st15{fill:#4E4B51;}
	.st16{fill:#E8D2A8;}
	.st17{fill:#C2AA86;}
	.st18{fill:#8A878D;}
	.st19{fill:#99A2B9;}
	.st20{fill:#B7C0D7;}
	.st21{fill:#D5DEF5;}
	.st22{fill:#302D33;}
	.st23{fill:#BED38E;}
	.st24{fill:#1E97C6;}
	.st25{fill:#A0B570;}
	.st26{fill:#DCF1AC;}
	.st27{fill:#A4A4A4;}
	.st28{fill:#7B849B;}
	.st29{fill:#BD7000;}
</style>
<g>
	<g>
		<circle class="st19" cx="28.5" cy="22" r="18"/>
		<path class="st1" d="M28.5,40.5C18.299,40.5,10,32.201,10,22S18.299,3.5,28.5,3.5S47,11.799,47,22S38.701,40.5,28.5,40.5z
			 M28.5,4.5C18.851,4.5,11,12.351,11,22s7.851,17.5,17.5,17.5S46,31.649,46,22S38.149,4.5,28.5,4.5z"/>
	</g>
	<g>
		<circle class="st20" cx="32.5" cy="22" r="18"/>
		<path class="st1" d="M32.5,40.5C22.299,40.5,14,32.201,14,22S22.299,3.5,32.5,3.5S51,11.799,51,22S42.701,40.5,32.5,40.5z
			 M32.5,4.5C22.851,4.5,15,12.351,15,22s7.851,17.5,17.5,17.5S50,31.649,50,22S42.149,4.5,32.5,4.5z"/>
	</g>
	<g>
		<circle class="st2" cx="32.5" cy="22" r="15"/>
		<path class="st1" d="M32.5,37.5C23.953,37.5,17,30.547,17,22S23.953,6.5,32.5,6.5S48,13.453,48,22S41.047,37.5,32.5,37.5z
			 M32.5,7.5C24.505,7.5,18,14.005,18,22s6.505,14.5,14.5,14.5S47,29.995,47,22S40.495,7.5,32.5,7.5z"/>
	</g>
	<g>
		<path class="st0" d="M32.5,35.5c-0.276,0-0.5-0.224-0.5-0.5s0.224-0.5,0.5-0.5C39.393,34.5,45,28.893,45,22
			c0-0.276,0.224-0.5,0.5-0.5S46,21.724,46,22C46,29.444,39.944,35.5,32.5,35.5z"/>
	</g>
	<g>
		<path class="st3" d="M19.5,22.5c-0.276,0-0.5-0.224-0.5-0.5c0-7.444,6.056-13.5,13.5-13.5C32.776,8.5,33,8.724,33,9
			s-0.224,0.5-0.5,0.5C25.607,9.5,20,15.107,20,22C20,22.276,19.776,22.5,19.5,22.5z"/>
	</g>
	<g>
		<path class="st4" d="M31,60h-4c-1.105,0-2-0.895-2-2V46c0-1.105,0.895-2,2-2h4c1.105,0,2,0.895,2,2v12C33,59.105,32.105,60,31,60z
			"/>
		<path class="st1" d="M31,60.5h-4c-1.379,0-2.5-1.122-2.5-2.5V46c0-1.378,1.121-2.5,2.5-2.5h4c1.379,0,2.5,1.122,2.5,2.5v12
			C33.5,59.378,32.379,60.5,31,60.5z M27,44.5c-0.827,0-1.5,0.673-1.5,1.5v12c0,0.827,0.673,1.5,1.5,1.5h4
			c0.827,0,1.5-0.673,1.5-1.5V46c0-0.827-0.673-1.5-1.5-1.5H27z"/>
	</g>
	<g>
		<rect x="27" y="40" class="st19" width="4" height="4"/>
		<path class="st1" d="M31,44.5h-4c-0.276,0-0.5-0.224-0.5-0.5v-4c0-0.276,0.224-0.5,0.5-0.5h4c0.276,0,0.5,0.224,0.5,0.5v4
			C31.5,44.276,31.276,44.5,31,44.5z M27.5,43.5h3v-3h-3V43.5z"/>
	</g>
	<g>
		<path class="st5" d="M34,60h-4c-1.105,0-2-0.895-2-2V46c0-1.105,0.895-2,2-2h4c1.105,0,2,0.895,2,2v12C36,59.105,35.105,60,34,60z
			"/>
		<path class="st1" d="M34,60.5h-4c-1.379,0-2.5-1.122-2.5-2.5V46c0-1.378,1.121-2.5,2.5-2.5h4c1.379,0,2.5,1.122,2.5,2.5v12
			C36.5,59.378,35.379,60.5,34,60.5z M30,44.5c-0.827,0-1.5,0.673-1.5,1.5v12c0,0.827,0.673,1.5,1.5,1.5h4
			c0.827,0,1.5-0.673,1.5-1.5V46c0-0.827-0.673-1.5-1.5-1.5H30z"/>
	</g>
	<g>
		<rect x="30" y="40" class="st20" width="4" height="4"/>
		<path class="st1" d="M34,44.5h-4c-0.276,0-0.5-0.224-0.5-0.5v-4c0-0.276,0.224-0.5,0.5-0.5h4c0.276,0,0.5,0.224,0.5,0.5v4
			C34.5,44.276,34.276,44.5,34,44.5z M30.5,43.5h3v-3h-3V43.5z"/>
	</g>
	<g>
		<path class="st24" d="M30,58.5c-0.276,0-0.5-0.224-0.5-0.5V46c0-0.276,0.224-0.5,0.5-0.5s0.5,0.224,0.5,0.5v12
			C30.5,58.276,30.276,58.5,30,58.5z"/>
	</g>
	<g>
		<path class="st4" d="M34,58.5c-0.276,0-0.5-0.224-0.5-0.5V46c0-0.276,0.224-0.5,0.5-0.5s0.5,0.224,0.5,0.5v12
			C34.5,58.276,34.276,58.5,34,58.5z"/>
	</g>
	<g>
		<path class="st9" d="M9,36.827c-0.384,0-0.768-0.146-1.061-0.439c-0.586-0.585-0.586-1.536,0-2.121l18-18
			c0.586-0.586,1.535-0.586,2.121,0L37,25.206L53.939,8.267c0.586-0.586,1.535-0.586,2.121,0c0.586,0.585,0.586,1.536,0,2.121
			l-18,18c-0.586,0.586-1.535,0.586-2.121,0L27,19.448L10.061,36.388C9.768,36.681,9.384,36.827,9,36.827z"/>
		<path class="st1" d="M9,37.327c-0.534,0-1.036-0.208-1.414-0.586C7.208,36.364,7,35.861,7,35.327s0.208-1.037,0.586-1.414l18-18
			c0.779-0.78,2.049-0.78,2.828,0L37,24.499L53.586,7.913c0.779-0.78,2.049-0.78,2.828,0C56.792,8.291,57,8.793,57,9.327
			s-0.208,1.037-0.586,1.414l-18,18c-0.756,0.756-2.072,0.756-2.828,0L27,20.155L10.414,36.741C10.036,37.119,9.534,37.327,9,37.327
			z M27,16.328c-0.256,0-0.512,0.098-0.707,0.292l-18,18C8.104,34.809,8,35.06,8,35.327s0.104,0.518,0.293,0.707
			c0.379,0.378,1.035,0.378,1.414,0l16.939-16.939c0.195-0.195,0.512-0.195,0.707,0l8.939,8.939c0.379,0.378,1.035,0.378,1.414,0
			l18-18C55.896,9.845,56,9.594,56,9.327s-0.104-0.518-0.293-0.707c-0.391-0.39-1.023-0.39-1.414,0L37.354,25.56
			c-0.195,0.195-0.512,0.195-0.707,0l-8.939-8.939C27.512,16.425,27.256,16.328,27,16.328z"/>
	</g>
	<g>
		<circle class="st11" cx="27" cy="17.765" r="2.188"/>
		<path class="st1" d="M27,20.452c-1.481,0-2.688-1.206-2.688-2.688s1.206-2.688,2.688-2.688s2.688,1.206,2.688,2.688
			S28.481,20.452,27,20.452z M27,16.077c-0.931,0-1.688,0.757-1.688,1.688s0.757,1.688,1.688,1.688s1.688-0.757,1.688-1.688
			S27.931,16.077,27,16.077z"/>
	</g>
	<g>
		<circle class="st11" cx="37" cy="27.265" r="2.188"/>
		<path class="st1" d="M37,29.952c-1.481,0-2.688-1.206-2.688-2.688s1.206-2.688,2.688-2.688s2.688,1.206,2.688,2.688
			S38.481,29.952,37,29.952z M37,25.577c-0.931,0-1.688,0.757-1.688,1.688s0.757,1.688,1.688,1.688s1.688-0.757,1.688-1.688
			S37.931,25.577,37,25.577z"/>
	</g>
</g>
</svg>
