<?xml version="1.0" encoding="utf-8"?>
<!-- Generator: Adobe Illustrator 22.0.0, SVG Export Plug-In . SVG Version: 6.00 Build 0)  -->
<svg version="1.1" id="Icon_Set" xmlns="http://www.w3.org/2000/svg" xmlns:xlink="http://www.w3.org/1999/xlink" x="0px" y="0px"
	 viewBox="0 0 64 64" style="enable-background:new 0 0 64 64;" xml:space="preserve">
<style type="text/css">
	.st0{fill:#C2C2C2;}
	.st1{fill:#212A41;}
	.st2{fill:#E0E0E0;}
	.st3{fill:#FEFEFE;}
	.st4{fill:#005B8A;}
	.st5{fill:#0079A8;}
	.st6{fill:#E0C8A4;}
	.st7{fill:#FEE6C2;}
	.st8{fill:#DB8E11;}
	.st9{fill:#F9AC2F;}
	.st10{fill:#FFCA4D;}
	.st11{fill:#D32E5E;}
	.st12{fill:#B51040;}
	.st13{fill:#6C696F;}
	.st14{fill:#F14C7C;}
	.st15{fill:#4E4B51;}
	.st16{fill:#E8D2A8;}
	.st17{fill:#C2AA86;}
	.st18{fill:#8A878D;}
	.st19{fill:#99A2B9;}
	.st20{fill:#B7C0D7;}
	.st21{fill:#D5DEF5;}
	.st22{fill:#302D33;}
	.st23{fill:#BED38E;}
	.st24{fill:#1E97C6;}
	.st25{fill:#A0B570;}
	.st26{fill:#DCF1AC;}
	.st27{fill:#A4A4A4;}
	.st28{fill:#7B849B;}
	.st29{fill:#BD7000;}
</style>
<g>
	<g>
		<path class="st19" d="M38,56H12c-0.552,0-1-0.448-1-1V25c0-0.552,0.448-1,1-1h28c0.552,0,1,0.448,1,1v30
			C41,55.552,38.552,56,38,56z"/>
		<path class="st1" d="M38,56.5H12c-0.827,0-1.5-0.673-1.5-1.5V25c0-0.827,0.673-1.5,1.5-1.5h28c0.827,0,1.5,0.673,1.5,1.5v30
			C41.5,56.246,38.035,56.5,38,56.5z M12,24.5c-0.276,0-0.5,0.224-0.5,0.5v30c0,0.276,0.224,0.5,0.5,0.5h26
			c0.547,0,2.125-0.352,2.5-0.619V25c0-0.276-0.224-0.5-0.5-0.5H12z"/>
	</g>
	<g>
		<path class="st20" d="M52,56H24c-0.552,0-1-0.448-1-1V25c0-0.552,0.448-1,1-1h28c0.552,0,1,0.448,1,1v30
			C53,55.552,52.552,56,52,56z"/>
		<path class="st1" d="M52,56.5H24c-0.827,0-1.5-0.673-1.5-1.5V25c0-0.827,0.673-1.5,1.5-1.5h28c0.827,0,1.5,0.673,1.5,1.5v30
			C53.5,55.827,52.827,56.5,52,56.5z M24,24.5c-0.276,0-0.5,0.224-0.5,0.5v30c0,0.276,0.224,0.5,0.5,0.5h28
			c0.276,0,0.5-0.224,0.5-0.5V25c0-0.276-0.224-0.5-0.5-0.5H24z"/>
	</g>
	<g>
		<rect x="26" y="29" class="st5" width="24" height="6"/>
		<path class="st1" d="M50,35.5H26c-0.276,0-0.5-0.224-0.5-0.5v-6c0-0.276,0.224-0.5,0.5-0.5h24c0.276,0,0.5,0.224,0.5,0.5v6
			C50.5,35.276,50.276,35.5,50,35.5z M26.5,34.5h23v-5h-23V34.5z"/>
	</g>
	<g>
		<rect x="26" y="39" class="st5" width="24" height="6"/>
		<path class="st1" d="M50,45.5H26c-0.276,0-0.5-0.224-0.5-0.5v-6c0-0.276,0.224-0.5,0.5-0.5h24c0.276,0,0.5,0.224,0.5,0.5v6
			C50.5,45.276,50.276,45.5,50,45.5z M26.5,44.5h23v-5h-23V44.5z"/>
	</g>
	<g>
		<path class="st1" d="M33,35.5c-0.276,0-0.5-0.224-0.5-0.5v-6c0-0.276,0.224-0.5,0.5-0.5s0.5,0.224,0.5,0.5v6
			C33.5,35.276,33.276,35.5,33,35.5z"/>
	</g>
	<g>
		<path class="st1" d="M33,45.5c-0.276,0-0.5-0.224-0.5-0.5v-6c0-0.276,0.224-0.5,0.5-0.5s0.5,0.224,0.5,0.5v6
			C33.5,45.276,33.276,45.5,33,45.5z"/>
	</g>
	<g>
		<path class="st1" d="M43,35.5c-0.276,0-0.5-0.224-0.5-0.5v-6c0-0.276,0.224-0.5,0.5-0.5s0.5,0.224,0.5,0.5v6
			C43.5,35.276,43.276,35.5,43,35.5z"/>
	</g>
	<g>
		<path class="st1" d="M43,45.5c-0.276,0-0.5-0.224-0.5-0.5v-6c0-0.276,0.224-0.5,0.5-0.5s0.5,0.224,0.5,0.5v6
			C43.5,45.276,43.276,45.5,43,45.5z"/>
	</g>
	<g>
		<rect x="33" y="49" class="st5" width="10" height="7"/>
		<path class="st1" d="M43,56.5H33c-0.276,0-0.5-0.224-0.5-0.5v-7c0-0.276,0.224-0.5,0.5-0.5h10c0.276,0,0.5,0.224,0.5,0.5v7
			C43.5,56.276,43.276,56.5,43,56.5z M33.5,55.5h9v-6h-9V55.5z"/>
	</g>
	<g>
		<path class="st1" d="M38,56.5c-0.276,0-0.5-0.224-0.5-0.5v-7c0-0.276,0.224-0.5,0.5-0.5s0.5,0.224,0.5,0.5v7
			C38.5,56.276,38.276,56.5,38,56.5z"/>
	</g>
	<g>
		<circle class="st12" cx="30.5" cy="14" r="10"/>
		<path class="st1" d="M30.5,24.5C24.71,24.5,20,19.79,20,14S24.71,3.5,30.5,3.5S41,8.21,41,14S36.29,24.5,30.5,24.5z M30.5,4.5
			C25.262,4.5,21,8.762,21,14s4.262,9.5,9.5,9.5S40,19.238,40,14S35.738,4.5,30.5,4.5z"/>
	</g>
	<g>
		<circle class="st11" cx="33.5" cy="14" r="10"/>
		<path class="st1" d="M33.5,24.5C27.71,24.5,23,19.79,23,14S27.71,3.5,33.5,3.5S44,8.21,44,14S39.29,24.5,33.5,24.5z M33.5,4.5
			C28.262,4.5,24,8.762,24,14s4.262,9.5,9.5,9.5S43,19.238,43,14S38.738,4.5,33.5,4.5z"/>
	</g>
	<g>
		<path class="st2" d="M34.5,11h-7c-0.552,0-1,0.448-1,1v3c0,0.552,0.448,1,1,1h7l5,2V9L34.5,11z"/>
		<path class="st1" d="M39.5,18.5c-0.063,0-0.126-0.012-0.186-0.036L34.404,16.5H27.5c-0.827,0-1.5-0.673-1.5-1.5v-3
			c0-0.827,0.673-1.5,1.5-1.5h6.904l4.911-1.964c0.153-0.062,0.328-0.043,0.466,0.05C39.917,8.679,40,8.834,40,9v9
			c0,0.166-0.083,0.321-0.22,0.414C39.696,18.471,39.599,18.5,39.5,18.5z M27.5,11.5c-0.276,0-0.5,0.224-0.5,0.5v3
			c0,0.276,0.224,0.5,0.5,0.5h7c0.063,0,0.126,0.012,0.186,0.036L39,17.262V9.738l-4.314,1.726C34.626,11.488,34.563,11.5,34.5,11.5
			H27.5z"/>
	</g>
	<g>
		<path class="st5" d="M30.5,21h-1c-0.552,0-1-0.448-1-1v-4h3v4C31.5,20.552,31.052,21,30.5,21z"/>
		<path class="st1" d="M30.5,21.5h-1c-0.827,0-1.5-0.673-1.5-1.5v-4c0-0.276,0.224-0.5,0.5-0.5h3c0.276,0,0.5,0.224,0.5,0.5v4
			C32,20.827,31.327,21.5,30.5,21.5z M29,16.5V20c0,0.276,0.224,0.5,0.5,0.5h1c0.276,0,0.5-0.224,0.5-0.5v-3.5H29z"/>
	</g>
	<g>
		<path class="st1" d="M34.5,16.5c-0.276,0-0.5-0.224-0.5-0.5v-5c0-0.276,0.224-0.5,0.5-0.5S35,10.724,35,11v5
			C35,16.276,34.776,16.5,34.5,16.5z"/>
	</g>
	<g>
		<rect x="4" y="56" transform="matrix(-1 -1.224647e-16 1.224647e-16 -1 46 116)" class="st15" width="38" height="4"/>
		<path class="st1" d="M42,60.5H4c-0.276,0-0.5-0.224-0.5-0.5v-4c0-0.276,0.224-0.5,0.5-0.5h38c0.276,0,0.5,0.224,0.5,0.5v4
			C42.5,60.276,42.276,60.5,42,60.5z M4.5,59.5h37v-3h-37V59.5z"/>
	</g>
	<g>
		<rect x="22" y="56" transform="matrix(-1 -1.224647e-16 1.224647e-16 -1 82 116)" class="st13" width="38" height="4"/>
		<path class="st1" d="M60,60.5H22c-0.276,0-0.5-0.224-0.5-0.5v-4c0-0.276,0.224-0.5,0.5-0.5h38c0.276,0,0.5,0.224,0.5,0.5v4
			C60.5,60.276,60.276,60.5,60,60.5z M22.5,59.5h37v-3h-37V59.5z"/>
	</g>
	<g>
		<path class="st19" d="M51,54.5c-0.276,0-0.5-0.224-0.5-0.5V26c0-0.276,0.224-0.5,0.5-0.5s0.5,0.224,0.5,0.5v28
			C51.5,54.276,51.276,54.5,51,54.5z"/>
	</g>
	<g>
		<path class="st21" d="M25,54.5c-0.276,0-0.5-0.224-0.5-0.5V26c0-0.276,0.224-0.5,0.5-0.5s0.5,0.224,0.5,0.5v28
			C25.5,54.276,25.276,54.5,25,54.5z"/>
	</g>
	<g>
		<path class="st20" d="M13,54.5c-0.276,0-0.5-0.224-0.5-0.5V26c0-0.276,0.224-0.5,0.5-0.5s0.5,0.224,0.5,0.5v28
			C13.5,54.276,13.276,54.5,13,54.5z"/>
	</g>
</g>
</svg>
